<svg width="390" height="844" viewBox="0 0 390 844" fill="none" xmlns="http://www.w3.org/2000/svg">
<rect x="5" y="5" width="380" height="834" rx="45" fill="#D9D9D9"/>
<rect x="5" y="5" width="380" height="834" rx="45" stroke="black" stroke-width="10"/>
<g style="mix-blend-mode:plus-darker">
<path d="M115 825.5C115 824.119 116.119 823 117.5 823H272.5C273.881 823 275 824.119 275 825.5C275 826.881 273.881 828 272.5 828H117.5C116.119 828 115 826.881 115 825.5Z" fill="#CCCCCC"/>
</g>
<rect width="366" height="82.5" transform="translate(12 62)" fill="#D9D9D9"/>
<rect width="62.5" height="62.5" transform="translate(22 72)" fill="#6B6B6B"/>
<rect width="273.5" height="62.5" transform="translate(94.5 72)" fill="#6B6B6B"/>
<path d="M172.853 109V97.022H174.995V102.002H180.822V97.022H182.955V109H180.822V103.804H174.995V109H172.853ZM185.918 109V97.022H193.671V98.8232H188.06V102.069H193.364V103.771H188.06V107.199H193.671V109H185.918ZM195.439 109L199.689 97.022H201.466V99.2466H200.827L197.681 109H195.439ZM197.581 105.904L198.137 104.252H203.632L204.188 105.904H197.581ZM204.114 109L200.968 99.2466V97.022H202.097L206.355 109H204.114ZM208.414 109V97.022H212.904C214.094 97.022 215.107 97.2544 215.942 97.7192C216.784 98.1841 217.425 98.8592 217.868 99.7446C218.316 100.63 218.541 101.698 218.541 102.949V102.965C218.541 104.244 218.319 105.334 217.876 106.236C217.434 107.132 216.792 107.819 215.951 108.294C215.115 108.765 214.1 109 212.904 109H208.414ZM210.555 107.199H212.622C213.413 107.199 214.089 107.035 214.647 106.709C215.206 106.382 215.63 105.907 215.917 105.281C216.211 104.656 216.357 103.895 216.357 102.999V102.982C216.357 102.108 216.208 101.361 215.909 100.741C215.616 100.115 215.19 99.6395 214.631 99.313C214.072 98.9865 213.402 98.8232 212.622 98.8232H210.555V107.199ZM220.998 109V97.022H228.75V98.8232H223.139V102.069H228.443V103.771H223.139V107.199H228.75V109H220.998ZM231.407 109V97.022H236.246C237.104 97.022 237.84 97.1742 238.454 97.4785C239.068 97.7829 239.539 98.2118 239.865 98.7651C240.192 99.3185 240.355 99.9771 240.355 100.741V100.757C240.355 101.549 240.156 102.251 239.757 102.866C239.364 103.474 238.814 103.906 238.105 104.161L240.72 109H238.28L235.922 104.493C235.911 104.493 235.895 104.493 235.873 104.493C235.85 104.493 235.831 104.493 235.814 104.493H233.548V109H231.407ZM233.548 102.849H236.022C236.703 102.849 237.231 102.669 237.607 102.31C237.984 101.95 238.172 101.449 238.172 100.807V100.791C238.172 100.165 237.975 99.6699 237.583 99.3047C237.195 98.9339 236.661 98.7485 235.98 98.7485H233.548V102.849ZM250.474 109V98.8232H246.788V97.022H256.301V98.8232H252.615V109H250.474ZM258.55 109V97.022H266.303V98.8232H260.692V102.069H265.996V103.771H260.692V107.199H266.303V109H258.55ZM268.212 109L272.62 102.202L272.122 103.912V102.94L268.246 97.022H270.777L273.558 101.529H274.546L273.151 102.334L276.43 97.022H278.821L274.82 102.999V103.97L274.313 102.26L278.754 109H276.289L273.458 104.592H272.479L273.89 103.804L270.545 109H268.212ZM284.025 109V98.8232H280.34V97.022H289.853V98.8232H286.167V109H284.025Z" fill="white"/>
<g clip-path="url(#clip0_2004_242)">
<rect width="366" height="540" transform="translate(12 144.5)" fill="#D9D9D9"/>
<rect width="326" height="100" transform="translate(32 164.5)" fill="black" fill-opacity="0.3"/>
<rect width="306" height="34" transform="translate(42 174.5)" fill="black" fill-opacity="0.3"/>
<path d="M146.932 197.799C145.759 197.799 144.749 197.544 143.902 197.035C143.061 196.521 142.411 195.793 141.952 194.852C141.492 193.911 141.263 192.799 141.263 191.515V191.499C141.263 190.209 141.492 189.097 141.952 188.162C142.417 187.221 143.072 186.496 143.919 185.987C144.771 185.478 145.776 185.223 146.932 185.223C148.094 185.223 149.099 185.478 149.945 185.987C150.792 186.496 151.445 187.221 151.904 188.162C152.364 189.102 152.593 190.215 152.593 191.499V191.515C152.593 192.799 152.364 193.911 151.904 194.852C151.451 195.793 150.8 196.521 149.954 197.035C149.107 197.544 148.1 197.799 146.932 197.799ZM146.932 195.948C147.646 195.948 148.263 195.765 148.783 195.4C149.303 195.035 149.705 194.52 149.987 193.856C150.275 193.192 150.418 192.412 150.418 191.515V191.499C150.418 190.597 150.275 189.816 149.987 189.158C149.705 188.494 149.303 187.982 148.783 187.622C148.263 187.257 147.646 187.074 146.932 187.074C146.224 187.074 145.607 187.257 145.081 187.622C144.561 187.982 144.157 188.494 143.869 189.158C143.587 189.816 143.446 190.597 143.446 191.499V191.515C143.446 192.412 143.584 193.192 143.861 193.856C144.143 194.52 144.544 195.035 145.064 195.4C145.59 195.765 146.213 195.948 146.932 195.948ZM150.053 198.745L146.334 193.748H148.426L152.145 198.745H150.053ZM157.839 197.683C157.164 197.683 156.597 197.553 156.138 197.292C155.678 197.027 155.333 196.642 155.1 196.139C154.868 195.63 154.751 195.015 154.751 194.296V188.427H156.818V193.823C156.818 194.526 156.957 195.054 157.233 195.408C157.51 195.762 157.961 195.939 158.586 195.939C158.918 195.939 159.212 195.89 159.466 195.79C159.726 195.685 159.942 195.535 160.114 195.342C160.285 195.148 160.415 194.916 160.504 194.645C160.592 194.368 160.637 194.058 160.637 193.715V188.427H162.704V197.5H160.637V196.122H160.496C160.357 196.443 160.164 196.722 159.915 196.96C159.666 197.193 159.367 197.373 159.018 197.5C158.669 197.622 158.277 197.683 157.839 197.683ZM169.112 197.683C168.21 197.683 167.435 197.492 166.788 197.11C166.146 196.728 165.65 196.186 165.302 195.483C164.953 194.78 164.779 193.947 164.779 192.984V192.976C164.779 192.024 164.95 191.194 165.293 190.486C165.642 189.778 166.135 189.23 166.771 188.842C167.407 188.449 168.154 188.253 169.012 188.253C169.875 188.253 170.617 188.444 171.237 188.826C171.862 189.202 172.344 189.73 172.681 190.411C173.019 191.092 173.188 191.889 173.188 192.802V193.482H165.816V192.096H172.175L171.195 193.391V192.569C171.195 191.966 171.104 191.465 170.921 191.067C170.739 190.668 170.484 190.37 170.158 190.17C169.837 189.971 169.463 189.872 169.037 189.872C168.611 189.872 168.232 189.977 167.9 190.187C167.573 190.392 167.313 190.696 167.12 191.1C166.931 191.499 166.837 191.988 166.837 192.569V193.399C166.837 193.958 166.931 194.437 167.12 194.835C167.308 195.228 167.573 195.533 167.917 195.749C168.265 195.959 168.677 196.064 169.153 196.064C169.524 196.064 169.842 196.011 170.108 195.906C170.379 195.796 170.598 195.666 170.764 195.516C170.93 195.361 171.046 195.215 171.112 195.076L171.137 195.018H173.096L173.08 195.093C173.008 195.386 172.875 195.685 172.681 195.989C172.493 196.288 172.236 196.568 171.909 196.828C171.588 197.082 171.195 197.29 170.73 197.45C170.266 197.605 169.726 197.683 169.112 197.683ZM178.683 197.683C177.913 197.683 177.249 197.575 176.69 197.359C176.137 197.138 175.7 196.833 175.379 196.446C175.058 196.053 174.867 195.599 174.806 195.084V195.068H176.856L176.865 195.084C176.975 195.4 177.183 195.657 177.487 195.856C177.792 196.056 178.201 196.155 178.716 196.155C179.059 196.155 179.361 196.108 179.621 196.014C179.881 195.915 180.085 195.779 180.235 195.607C180.384 195.436 180.459 195.237 180.459 195.01V194.993C180.459 194.728 180.351 194.506 180.135 194.329C179.919 194.146 179.562 194 179.064 193.889L177.595 193.557C177.02 193.43 176.544 193.253 176.167 193.026C175.791 192.799 175.509 192.52 175.321 192.188C175.138 191.855 175.047 191.468 175.047 191.025V191.017C175.047 190.469 175.199 189.988 175.503 189.573C175.813 189.158 176.242 188.834 176.79 188.602C177.338 188.369 177.969 188.253 178.683 188.253C179.419 188.253 180.052 188.364 180.583 188.585C181.115 188.806 181.53 189.111 181.829 189.498C182.127 189.885 182.299 190.325 182.343 190.818V190.834H180.401L180.393 190.81C180.315 190.522 180.13 190.278 179.836 190.079C179.549 189.874 179.161 189.772 178.674 189.772C178.37 189.772 178.096 189.819 177.853 189.913C177.615 190.007 177.426 190.14 177.288 190.312C177.155 190.478 177.089 190.674 177.089 190.901V190.909C177.089 191.086 177.133 191.241 177.222 191.374C177.316 191.507 177.462 191.623 177.662 191.723C177.861 191.822 178.124 191.911 178.45 191.988L179.919 192.312C180.81 192.511 181.469 192.807 181.895 193.2C182.321 193.593 182.534 194.122 182.534 194.786V194.802C182.534 195.378 182.368 195.881 182.036 196.313C181.704 196.745 181.248 197.082 180.667 197.326C180.085 197.564 179.424 197.683 178.683 197.683ZM188.137 197.542C187.097 197.542 186.347 197.351 185.888 196.969C185.428 196.587 185.199 195.962 185.199 195.093V190.029H183.788V188.427H185.199V186.203H187.299V188.427H189.208V190.029H187.299V194.603C187.299 195.051 187.393 195.381 187.581 195.591C187.775 195.796 188.085 195.898 188.511 195.898C188.66 195.898 188.782 195.895 188.876 195.89C188.976 195.879 189.086 195.868 189.208 195.856V197.45C189.064 197.478 188.898 197.5 188.71 197.517C188.527 197.533 188.336 197.542 188.137 197.542ZM191.3 197.5V188.427H193.358V197.5H191.3ZM192.337 186.908C192 186.908 191.709 186.789 191.466 186.551C191.222 186.313 191.101 186.028 191.101 185.696C191.101 185.353 191.222 185.065 191.466 184.833C191.709 184.595 192 184.476 192.337 184.476C192.675 184.476 192.963 184.595 193.201 184.833C193.444 185.065 193.566 185.353 193.566 185.696C193.566 186.028 193.444 186.313 193.201 186.551C192.963 186.789 192.675 186.908 192.337 186.908ZM199.825 197.683C198.923 197.683 198.145 197.494 197.492 197.118C196.839 196.736 196.336 196.194 195.981 195.491C195.633 194.788 195.458 193.947 195.458 192.968V192.951C195.458 191.983 195.636 191.147 195.99 190.444C196.344 189.736 196.845 189.194 197.492 188.817C198.145 188.441 198.923 188.253 199.825 188.253C200.727 188.253 201.501 188.441 202.149 188.817C202.802 189.194 203.306 189.733 203.66 190.436C204.014 191.139 204.191 191.977 204.191 192.951V192.968C204.191 193.947 204.014 194.788 203.66 195.491C203.311 196.194 202.81 196.736 202.157 197.118C201.51 197.494 200.732 197.683 199.825 197.683ZM199.825 196.006C200.301 196.006 200.705 195.887 201.037 195.649C201.374 195.405 201.632 195.06 201.809 194.611C201.986 194.158 202.074 193.612 202.074 192.976V192.959C202.074 192.318 201.986 191.772 201.809 191.324C201.632 190.87 201.374 190.525 201.037 190.287C200.705 190.043 200.301 189.921 199.825 189.921C199.349 189.921 198.942 190.043 198.604 190.287C198.267 190.525 198.01 190.87 197.833 191.324C197.655 191.772 197.567 192.318 197.567 192.959V192.976C197.567 193.612 197.655 194.158 197.833 194.611C198.01 195.065 198.264 195.411 198.596 195.649C198.934 195.887 199.343 196.006 199.825 196.006ZM206.266 197.5V188.427H208.333V189.822H208.474C208.69 189.329 209.016 188.945 209.454 188.668C209.891 188.391 210.436 188.253 211.089 188.253C212.102 188.253 212.876 188.546 213.413 189.133C213.95 189.719 214.218 190.552 214.218 191.631V197.5H212.151V192.113C212.151 191.404 212.002 190.873 211.703 190.519C211.41 190.165 210.951 189.988 210.325 189.988C209.916 189.988 209.562 190.079 209.263 190.262C208.964 190.444 208.734 190.702 208.574 191.034C208.413 191.366 208.333 191.759 208.333 192.212V197.5H206.266ZM225.109 197.683C224.207 197.683 223.429 197.494 222.776 197.118C222.123 196.736 221.62 196.194 221.266 195.491C220.917 194.788 220.743 193.947 220.743 192.968V192.951C220.743 191.983 220.92 191.147 221.274 190.444C221.628 189.736 222.129 189.194 222.776 188.817C223.429 188.441 224.207 188.253 225.109 188.253C226.011 188.253 226.786 188.441 227.433 188.817C228.086 189.194 228.59 189.733 228.944 190.436C229.298 191.139 229.475 191.977 229.475 192.951V192.968C229.475 193.947 229.298 194.788 228.944 195.491C228.595 196.194 228.094 196.736 227.441 197.118C226.794 197.494 226.016 197.683 225.109 197.683ZM225.109 196.006C225.585 196.006 225.989 195.887 226.321 195.649C226.658 195.405 226.916 195.06 227.093 194.611C227.27 194.158 227.358 193.612 227.358 192.976V192.959C227.358 192.318 227.27 191.772 227.093 191.324C226.916 190.87 226.658 190.525 226.321 190.287C225.989 190.043 225.585 189.921 225.109 189.921C224.633 189.921 224.226 190.043 223.889 190.287C223.551 190.525 223.294 190.87 223.117 191.324C222.94 191.772 222.851 192.318 222.851 192.959V192.976C222.851 193.612 222.94 194.158 223.117 194.611C223.294 195.065 223.548 195.411 223.88 195.649C224.218 195.887 224.627 196.006 225.109 196.006ZM231.55 197.5V188.427H233.617V189.822H233.758C233.974 189.329 234.301 188.945 234.738 188.668C235.175 188.391 235.72 188.253 236.373 188.253C237.386 188.253 238.16 188.546 238.697 189.133C239.234 189.719 239.502 190.552 239.502 191.631V197.5H237.436V192.113C237.436 191.404 237.286 190.873 236.987 190.519C236.694 190.165 236.235 189.988 235.609 189.988C235.2 189.988 234.846 190.079 234.547 190.262C234.248 190.444 234.018 190.702 233.858 191.034C233.697 191.366 233.617 191.759 233.617 192.212V197.5H231.55ZM245.828 197.683C244.926 197.683 244.151 197.492 243.503 197.11C242.861 196.728 242.366 196.186 242.018 195.483C241.669 194.78 241.495 193.947 241.495 192.984V192.976C241.495 192.024 241.666 191.194 242.009 190.486C242.358 189.778 242.85 189.23 243.487 188.842C244.123 188.449 244.87 188.253 245.728 188.253C246.591 188.253 247.333 188.444 247.953 188.826C248.578 189.202 249.059 189.73 249.397 190.411C249.735 191.092 249.903 191.889 249.903 192.802V193.482H242.532V192.096H248.891L247.911 193.391V192.569C247.911 191.966 247.82 191.465 247.637 191.067C247.455 190.668 247.2 190.37 246.874 190.17C246.553 189.971 246.179 189.872 245.753 189.872C245.327 189.872 244.948 189.977 244.616 190.187C244.289 190.392 244.029 190.696 243.835 191.1C243.647 191.499 243.553 191.988 243.553 192.569V193.399C243.553 193.958 243.647 194.437 243.835 194.835C244.024 195.228 244.289 195.533 244.632 195.749C244.981 195.959 245.393 196.064 245.869 196.064C246.24 196.064 246.558 196.011 246.824 195.906C247.095 195.796 247.313 195.666 247.479 195.516C247.646 195.361 247.762 195.215 247.828 195.076L247.853 195.018H249.812L249.795 195.093C249.723 195.386 249.591 195.685 249.397 195.989C249.209 196.288 248.951 196.568 248.625 196.828C248.304 197.082 247.911 197.29 247.446 197.45C246.981 197.605 246.442 197.683 245.828 197.683Z" fill="white"/>
<rect width="306" height="36" transform="translate(42 218.5)" fill="white" fill-opacity="0.5"/>
<rect width="326" height="100" transform="translate(32 264.5)" fill="#989898"/>
<rect width="306" height="34" transform="translate(42 274.5)" fill="black" fill-opacity="0.3"/>
<path d="M146.999 297.799C145.825 297.799 144.815 297.544 143.969 297.035C143.128 296.521 142.477 295.793 142.018 294.852C141.559 293.911 141.329 292.799 141.329 291.515V291.499C141.329 290.209 141.559 289.097 142.018 288.162C142.483 287.221 143.139 286.496 143.985 285.987C144.838 285.478 145.842 285.223 146.999 285.223C148.161 285.223 149.165 285.478 150.012 285.987C150.858 286.496 151.511 287.221 151.971 288.162C152.43 289.102 152.66 290.215 152.66 291.499V291.515C152.66 292.799 152.43 293.911 151.971 294.852C151.517 295.793 150.867 296.521 150.02 297.035C149.173 297.544 148.166 297.799 146.999 297.799ZM146.999 295.948C147.712 295.948 148.329 295.765 148.85 295.4C149.37 295.035 149.771 294.52 150.053 293.856C150.341 293.192 150.485 292.412 150.485 291.515V291.499C150.485 290.597 150.341 289.816 150.053 289.158C149.771 288.494 149.37 287.982 148.85 287.622C148.329 287.257 147.712 287.074 146.999 287.074C146.29 287.074 145.673 287.257 145.147 287.622C144.627 287.982 144.223 288.494 143.936 289.158C143.653 289.816 143.512 290.597 143.512 291.499V291.515C143.512 292.412 143.651 293.192 143.927 293.856C144.209 294.52 144.611 295.035 145.131 295.4C145.657 295.765 146.279 295.948 146.999 295.948ZM150.12 298.745L146.401 293.748H148.493L152.211 298.745H150.12ZM157.906 297.683C157.231 297.683 156.663 297.553 156.204 297.292C155.745 297.027 155.399 296.642 155.167 296.139C154.934 295.63 154.818 295.015 154.818 294.296V288.427H156.885V293.823C156.885 294.526 157.023 295.054 157.3 295.408C157.576 295.762 158.028 295.939 158.653 295.939C158.985 295.939 159.278 295.89 159.533 295.79C159.793 295.685 160.009 295.535 160.18 295.342C160.352 295.148 160.482 294.916 160.57 294.645C160.659 294.368 160.703 294.058 160.703 293.715V288.427H162.77V297.5H160.703V296.122H160.562C160.424 296.443 160.23 296.722 159.981 296.96C159.732 297.193 159.433 297.373 159.084 297.5C158.736 297.622 158.343 297.683 157.906 297.683ZM169.178 297.683C168.276 297.683 167.501 297.492 166.854 297.11C166.212 296.728 165.717 296.186 165.368 295.483C165.02 294.78 164.845 293.947 164.845 292.984V292.976C164.845 292.024 165.017 291.194 165.36 290.486C165.708 289.778 166.201 289.23 166.837 288.842C167.474 288.449 168.221 288.253 169.079 288.253C169.942 288.253 170.683 288.444 171.303 288.826C171.929 289.202 172.41 289.73 172.748 290.411C173.085 291.092 173.254 291.889 173.254 292.802V293.482H165.883V292.096H172.241L171.262 293.391V292.569C171.262 291.966 171.17 291.465 170.988 291.067C170.805 290.668 170.551 290.37 170.224 290.17C169.903 289.971 169.53 289.872 169.104 289.872C168.677 289.872 168.298 289.977 167.966 290.187C167.64 290.392 167.38 290.696 167.186 291.1C166.998 291.499 166.904 291.988 166.904 292.569V293.399C166.904 293.958 166.998 294.437 167.186 294.835C167.374 295.228 167.64 295.533 167.983 295.749C168.332 295.959 168.744 296.064 169.22 296.064C169.59 296.064 169.909 296.011 170.174 295.906C170.445 295.796 170.664 295.666 170.83 295.516C170.996 295.361 171.112 295.215 171.179 295.076L171.204 295.018H173.163L173.146 295.093C173.074 295.386 172.941 295.685 172.748 295.989C172.559 296.288 172.302 296.568 171.976 296.828C171.655 297.082 171.262 297.29 170.797 297.45C170.332 297.605 169.792 297.683 169.178 297.683ZM178.749 297.683C177.98 297.683 177.316 297.575 176.757 297.359C176.203 297.138 175.766 296.833 175.445 296.446C175.124 296.053 174.933 295.599 174.873 295.084V295.068H176.923L176.931 295.084C177.042 295.4 177.249 295.657 177.554 295.856C177.858 296.056 178.268 296.155 178.782 296.155C179.125 296.155 179.427 296.108 179.687 296.014C179.947 295.915 180.152 295.779 180.301 295.607C180.451 295.436 180.525 295.237 180.525 295.01V294.993C180.525 294.728 180.417 294.506 180.202 294.329C179.986 294.146 179.629 294 179.131 293.889L177.662 293.557C177.086 293.43 176.61 293.253 176.234 293.026C175.858 292.799 175.575 292.52 175.387 292.188C175.205 291.855 175.113 291.468 175.113 291.025V291.017C175.113 290.469 175.265 289.988 175.57 289.573C175.88 289.158 176.309 288.834 176.856 288.602C177.404 288.369 178.035 288.253 178.749 288.253C179.485 288.253 180.119 288.364 180.65 288.585C181.181 288.806 181.596 289.111 181.895 289.498C182.194 289.885 182.365 290.325 182.41 290.818V290.834H180.467L180.459 290.81C180.382 290.522 180.196 290.278 179.903 290.079C179.615 289.874 179.228 289.772 178.741 289.772C178.436 289.772 178.162 289.819 177.919 289.913C177.681 290.007 177.493 290.14 177.354 290.312C177.222 290.478 177.155 290.674 177.155 290.901V290.909C177.155 291.086 177.2 291.241 177.288 291.374C177.382 291.507 177.529 291.623 177.728 291.723C177.927 291.822 178.19 291.911 178.517 291.988L179.986 292.312C180.877 292.511 181.535 292.807 181.961 293.2C182.388 293.593 182.601 294.122 182.601 294.786V294.802C182.601 295.378 182.435 295.881 182.103 296.313C181.771 296.745 181.314 297.082 180.733 297.326C180.152 297.564 179.491 297.683 178.749 297.683ZM188.204 297.542C187.163 297.542 186.413 297.351 185.954 296.969C185.495 296.587 185.265 295.962 185.265 295.093V290.029H183.854V288.427H185.265V286.203H187.365V288.427H189.274V290.029H187.365V294.603C187.365 295.051 187.459 295.381 187.647 295.591C187.841 295.796 188.151 295.898 188.577 295.898C188.727 295.898 188.848 295.895 188.942 295.89C189.042 295.879 189.153 295.868 189.274 295.856V297.45C189.131 297.478 188.965 297.5 188.776 297.517C188.594 297.533 188.403 297.542 188.204 297.542ZM191.366 297.5V288.427H193.425V297.5H191.366ZM192.404 286.908C192.066 286.908 191.776 286.789 191.532 286.551C191.289 286.313 191.167 286.028 191.167 285.696C191.167 285.353 191.289 285.065 191.532 284.833C191.776 284.595 192.066 284.476 192.404 284.476C192.741 284.476 193.029 284.595 193.267 284.833C193.511 285.065 193.632 285.353 193.632 285.696C193.632 286.028 193.511 286.313 193.267 286.551C193.029 286.789 192.741 286.908 192.404 286.908ZM199.891 297.683C198.989 297.683 198.212 297.494 197.559 297.118C196.906 296.736 196.402 296.194 196.048 295.491C195.699 294.788 195.525 293.947 195.525 292.968V292.951C195.525 291.983 195.702 291.147 196.056 290.444C196.41 289.736 196.911 289.194 197.559 288.817C198.212 288.441 198.989 288.253 199.891 288.253C200.793 288.253 201.568 288.441 202.215 288.817C202.868 289.194 203.372 289.733 203.726 290.436C204.08 291.139 204.257 291.977 204.257 292.951V292.968C204.257 293.947 204.08 294.788 203.726 295.491C203.377 296.194 202.877 296.736 202.224 297.118C201.576 297.494 200.799 297.683 199.891 297.683ZM199.891 296.006C200.367 296.006 200.771 295.887 201.103 295.649C201.441 295.405 201.698 295.06 201.875 294.611C202.052 294.158 202.141 293.612 202.141 292.976V292.959C202.141 292.318 202.052 291.772 201.875 291.324C201.698 290.87 201.441 290.525 201.103 290.287C200.771 290.043 200.367 289.921 199.891 289.921C199.415 289.921 199.008 290.043 198.671 290.287C198.333 290.525 198.076 290.87 197.899 291.324C197.722 291.772 197.633 292.318 197.633 292.959V292.976C197.633 293.612 197.722 294.158 197.899 294.611C198.076 295.065 198.331 295.411 198.663 295.649C199 295.887 199.41 296.006 199.891 296.006ZM206.333 297.5V288.427H208.399V289.822H208.541C208.756 289.329 209.083 288.945 209.52 288.668C209.957 288.391 210.502 288.253 211.155 288.253C212.168 288.253 212.943 288.546 213.479 289.133C214.016 289.719 214.285 290.552 214.285 291.631V297.5H212.218V292.113C212.218 291.404 212.068 290.873 211.77 290.519C211.476 290.165 211.017 289.988 210.392 289.988C209.982 289.988 209.628 290.079 209.329 290.262C209.03 290.444 208.801 290.702 208.64 291.034C208.48 291.366 208.399 291.759 208.399 292.212V297.5H206.333ZM224.827 297.542C223.786 297.542 223.036 297.351 222.577 296.969C222.118 296.587 221.888 295.962 221.888 295.093V290.029H220.477V288.427H221.888V286.203H223.988V288.427H225.897V290.029H223.988V294.603C223.988 295.051 224.082 295.381 224.271 295.591C224.464 295.796 224.774 295.898 225.2 295.898C225.35 295.898 225.471 295.895 225.565 295.89C225.665 295.879 225.776 295.868 225.897 295.856V297.45C225.754 297.478 225.588 297.5 225.399 297.517C225.217 297.533 225.026 297.542 224.827 297.542ZM229.699 297.5L227.234 288.427H229.309L230.812 295.25H230.961L232.704 288.427H234.671L236.423 295.25H236.572L238.075 288.427H240.125L237.66 297.5H235.501L233.733 290.926H233.592L231.833 297.5H229.699ZM245.462 297.683C244.56 297.683 243.783 297.494 243.13 297.118C242.477 296.736 241.973 296.194 241.619 295.491C241.271 294.788 241.096 293.947 241.096 292.968V292.951C241.096 291.983 241.273 291.147 241.627 290.444C241.982 289.736 242.482 289.194 243.13 288.817C243.783 288.441 244.56 288.253 245.462 288.253C246.364 288.253 247.139 288.441 247.787 288.817C248.44 289.194 248.943 289.733 249.297 290.436C249.652 291.139 249.829 291.977 249.829 292.951V292.968C249.829 293.947 249.652 294.788 249.297 295.491C248.949 296.194 248.448 296.736 247.795 297.118C247.147 297.494 246.37 297.683 245.462 297.683ZM245.462 296.006C245.938 296.006 246.342 295.887 246.674 295.649C247.012 295.405 247.269 295.06 247.446 294.611C247.623 294.158 247.712 293.612 247.712 292.976V292.959C247.712 292.318 247.623 291.772 247.446 291.324C247.269 290.87 247.012 290.525 246.674 290.287C246.342 290.043 245.938 289.921 245.462 289.921C244.986 289.921 244.58 290.043 244.242 290.287C243.905 290.525 243.647 290.87 243.47 291.324C243.293 291.772 243.205 292.318 243.205 292.959V292.976C243.205 293.612 243.293 294.158 243.47 294.611C243.647 295.065 243.902 295.411 244.234 295.649C244.571 295.887 244.981 296.006 245.462 296.006Z" fill="white"/>
<rect width="306" height="36" transform="translate(42 318.5)" fill="white" fill-opacity="0.5"/>
<rect width="326" height="100" transform="translate(32 364.5)" fill="#989898"/>
<rect width="306" height="34" transform="translate(42 374.5)" fill="black" fill-opacity="0.3"/>
<path d="M139.783 397.799C138.61 397.799 137.6 397.544 136.753 397.035C135.912 396.521 135.262 395.793 134.803 394.852C134.343 393.911 134.114 392.799 134.114 391.515V391.499C134.114 390.209 134.343 389.097 134.803 388.162C135.268 387.221 135.923 386.496 136.77 385.987C137.622 385.478 138.627 385.223 139.783 385.223C140.945 385.223 141.95 385.478 142.796 385.987C143.643 386.496 144.296 387.221 144.755 388.162C145.215 389.102 145.444 390.215 145.444 391.499V391.515C145.444 392.799 145.215 393.911 144.755 394.852C144.302 395.793 143.651 396.521 142.805 397.035C141.958 397.544 140.951 397.799 139.783 397.799ZM139.783 395.948C140.497 395.948 141.114 395.765 141.634 395.4C142.154 395.035 142.556 394.52 142.838 393.856C143.126 393.192 143.27 392.412 143.27 391.515V391.499C143.27 390.597 143.126 389.816 142.838 389.158C142.556 388.494 142.154 387.982 141.634 387.622C141.114 387.257 140.497 387.074 139.783 387.074C139.075 387.074 138.458 387.257 137.932 387.622C137.412 387.982 137.008 388.494 136.72 389.158C136.438 389.816 136.297 390.597 136.297 391.499V391.515C136.297 392.412 136.435 393.192 136.712 393.856C136.994 394.52 137.395 395.035 137.916 395.4C138.441 395.765 139.064 395.948 139.783 395.948ZM142.904 398.745L139.186 393.748H141.277L144.996 398.745H142.904ZM150.69 397.683C150.015 397.683 149.448 397.553 148.989 397.292C148.529 397.027 148.184 396.642 147.951 396.139C147.719 395.63 147.603 395.015 147.603 394.296V388.427H149.669V393.823C149.669 394.526 149.808 395.054 150.084 395.408C150.361 395.762 150.812 395.939 151.438 395.939C151.77 395.939 152.063 395.89 152.317 395.79C152.577 395.685 152.793 395.535 152.965 395.342C153.136 395.148 153.266 394.916 153.355 394.645C153.444 394.368 153.488 394.058 153.488 393.715V388.427H155.555V397.5H153.488V396.122H153.347C153.208 396.443 153.015 396.722 152.766 396.96C152.517 397.193 152.218 397.373 151.869 397.5C151.521 397.622 151.128 397.683 150.69 397.683ZM161.963 397.683C161.061 397.683 160.286 397.492 159.639 397.11C158.997 396.728 158.501 396.186 158.153 395.483C157.804 394.78 157.63 393.947 157.63 392.984V392.976C157.63 392.024 157.801 391.194 158.145 390.486C158.493 389.778 158.986 389.23 159.622 388.842C160.258 388.449 161.006 388.253 161.863 388.253C162.727 388.253 163.468 388.444 164.088 388.826C164.713 389.202 165.195 389.73 165.532 390.411C165.87 391.092 166.039 391.889 166.039 392.802V393.482H158.667V392.096H165.026L164.046 393.391V392.569C164.046 391.966 163.955 391.465 163.772 391.067C163.59 390.668 163.335 390.37 163.009 390.17C162.688 389.971 162.314 389.872 161.888 389.872C161.462 389.872 161.083 389.977 160.751 390.187C160.424 390.392 160.164 390.696 159.971 391.1C159.783 391.499 159.688 391.988 159.688 392.569V393.399C159.688 393.958 159.783 394.437 159.971 394.835C160.159 395.228 160.424 395.533 160.768 395.749C161.116 395.959 161.528 396.064 162.004 396.064C162.375 396.064 162.693 396.011 162.959 395.906C163.23 395.796 163.449 395.666 163.615 395.516C163.781 395.361 163.897 395.215 163.963 395.076L163.988 395.018H165.947L165.931 395.093C165.859 395.386 165.726 395.685 165.532 395.989C165.344 396.288 165.087 396.568 164.76 396.828C164.439 397.082 164.046 397.29 163.582 397.45C163.117 397.605 162.577 397.683 161.963 397.683ZM171.534 397.683C170.764 397.683 170.1 397.575 169.542 397.359C168.988 397.138 168.551 396.833 168.23 396.446C167.909 396.053 167.718 395.599 167.657 395.084V395.068H169.708L169.716 395.084C169.826 395.4 170.034 395.657 170.338 395.856C170.643 396.056 171.052 396.155 171.567 396.155C171.91 396.155 172.212 396.108 172.472 396.014C172.732 395.915 172.937 395.779 173.086 395.607C173.235 395.436 173.31 395.237 173.31 395.01V394.993C173.31 394.728 173.202 394.506 172.986 394.329C172.771 394.146 172.414 394 171.916 393.889L170.446 393.557C169.871 393.43 169.395 393.253 169.019 393.026C168.642 392.799 168.36 392.52 168.172 392.188C167.989 391.855 167.898 391.468 167.898 391.025V391.017C167.898 390.469 168.05 389.988 168.354 389.573C168.664 389.158 169.093 388.834 169.641 388.602C170.189 388.369 170.82 388.253 171.534 388.253C172.27 388.253 172.903 388.364 173.435 388.585C173.966 388.806 174.381 389.111 174.68 389.498C174.979 389.885 175.15 390.325 175.194 390.818V390.834H173.252L173.244 390.81C173.166 390.522 172.981 390.278 172.688 390.079C172.4 389.874 172.012 389.772 171.525 389.772C171.221 389.772 170.947 389.819 170.704 389.913C170.466 390.007 170.278 390.14 170.139 390.312C170.006 390.478 169.94 390.674 169.94 390.901V390.909C169.94 391.086 169.984 391.241 170.073 391.374C170.167 391.507 170.313 391.623 170.513 391.723C170.712 391.822 170.975 391.911 171.301 391.988L172.771 392.312C173.661 392.511 174.32 392.807 174.746 393.2C175.172 393.593 175.385 394.122 175.385 394.786V394.802C175.385 395.378 175.219 395.881 174.887 396.313C174.555 396.745 174.099 397.082 173.518 397.326C172.937 397.564 172.275 397.683 171.534 397.683ZM180.988 397.542C179.948 397.542 179.198 397.351 178.739 396.969C178.279 396.587 178.05 395.962 178.05 395.093V390.029H176.639V388.427H178.05V386.203H180.15V388.427H182.059V390.029H180.15V394.603C180.15 395.051 180.244 395.381 180.432 395.591C180.626 395.796 180.936 395.898 181.362 395.898C181.511 395.898 181.633 395.895 181.727 395.89C181.827 395.879 181.937 395.868 182.059 395.856V397.45C181.915 397.478 181.749 397.5 181.561 397.517C181.378 397.533 181.188 397.542 180.988 397.542ZM184.151 397.5V388.427H186.209V397.5H184.151ZM185.188 386.908C184.851 386.908 184.56 386.789 184.317 386.551C184.073 386.313 183.952 386.028 183.952 385.696C183.952 385.353 184.073 385.065 184.317 384.833C184.56 384.595 184.851 384.476 185.188 384.476C185.526 384.476 185.814 384.595 186.052 384.833C186.295 385.065 186.417 385.353 186.417 385.696C186.417 386.028 186.295 386.313 186.052 386.551C185.814 386.789 185.526 386.908 185.188 386.908ZM192.676 397.683C191.774 397.683 190.996 397.494 190.343 397.118C189.69 396.736 189.187 396.194 188.833 395.491C188.484 394.788 188.31 393.947 188.31 392.968V392.951C188.31 391.983 188.487 391.147 188.841 390.444C189.195 389.736 189.696 389.194 190.343 388.817C190.996 388.441 191.774 388.253 192.676 388.253C193.578 388.253 194.353 388.441 195 388.817C195.653 389.194 196.157 389.733 196.511 390.436C196.865 391.139 197.042 391.977 197.042 392.951V392.968C197.042 393.947 196.865 394.788 196.511 395.491C196.162 396.194 195.661 396.736 195.008 397.118C194.361 397.494 193.583 397.683 192.676 397.683ZM192.676 396.006C193.152 396.006 193.556 395.887 193.888 395.649C194.225 395.405 194.483 395.06 194.66 394.611C194.837 394.158 194.925 393.612 194.925 392.976V392.959C194.925 392.318 194.837 391.772 194.66 391.324C194.483 390.87 194.225 390.525 193.888 390.287C193.556 390.043 193.152 389.921 192.676 389.921C192.2 389.921 191.793 390.043 191.456 390.287C191.118 390.525 190.861 390.87 190.684 391.324C190.507 391.772 190.418 392.318 190.418 392.959V392.976C190.418 393.612 190.507 394.158 190.684 394.611C190.861 395.065 191.115 395.411 191.447 395.649C191.785 395.887 192.194 396.006 192.676 396.006ZM199.117 397.5V388.427H201.184V389.822H201.325C201.541 389.329 201.868 388.945 202.305 388.668C202.742 388.391 203.287 388.253 203.94 388.253C204.953 388.253 205.727 388.546 206.264 389.133C206.801 389.719 207.069 390.552 207.069 391.631V397.5H205.002V392.113C205.002 391.404 204.853 390.873 204.554 390.519C204.261 390.165 203.802 389.988 203.176 389.988C202.767 389.988 202.413 390.079 202.114 390.262C201.815 390.444 201.585 390.702 201.425 391.034C201.264 391.366 201.184 391.759 201.184 392.212V397.5H199.117ZM217.611 397.542C216.571 397.542 215.821 397.351 215.362 396.969C214.903 396.587 214.673 395.962 214.673 395.093V390.029H213.262V388.427H214.673V386.203H216.773V388.427H218.682V390.029H216.773V394.603C216.773 395.051 216.867 395.381 217.055 395.591C217.249 395.796 217.559 395.898 217.985 395.898C218.134 395.898 218.256 395.895 218.35 395.89C218.45 395.879 218.56 395.868 218.682 395.856V397.45C218.538 397.478 218.372 397.5 218.184 397.517C218.001 397.533 217.811 397.542 217.611 397.542ZM220.832 397.5V384.916H222.899V389.822H223.04C223.256 389.329 223.582 388.945 224.02 388.668C224.457 388.391 225.002 388.253 225.655 388.253C226.33 388.253 226.9 388.386 227.365 388.651C227.83 388.911 228.181 389.293 228.419 389.797C228.662 390.3 228.784 390.912 228.784 391.631V397.5H226.717V392.113C226.717 391.404 226.568 390.873 226.269 390.519C225.976 390.165 225.516 389.988 224.891 389.988C224.482 389.988 224.127 390.079 223.829 390.262C223.53 390.444 223.3 390.702 223.14 391.034C222.979 391.366 222.899 391.759 222.899 392.212V397.5H220.832ZM231.225 397.5V388.427H233.292V389.822H233.433C233.588 389.335 233.864 388.956 234.263 388.685C234.667 388.413 235.167 388.278 235.765 388.278C235.92 388.278 236.072 388.289 236.222 388.311C236.377 388.328 236.504 388.35 236.604 388.377V390.229C236.438 390.19 236.269 390.162 236.097 390.146C235.931 390.123 235.757 390.112 235.574 390.112C235.115 390.112 234.714 390.198 234.371 390.37C234.028 390.541 233.762 390.787 233.574 391.108C233.386 391.424 233.292 391.797 233.292 392.229V397.5H231.225ZM241.949 397.683C241.047 397.683 240.272 397.492 239.625 397.11C238.983 396.728 238.488 396.186 238.139 395.483C237.791 394.78 237.616 393.947 237.616 392.984V392.976C237.616 392.024 237.788 391.194 238.131 390.486C238.479 389.778 238.972 389.23 239.608 388.842C240.245 388.449 240.992 388.253 241.85 388.253C242.713 388.253 243.454 388.444 244.074 388.826C244.7 389.202 245.181 389.73 245.519 390.411C245.856 391.092 246.025 391.889 246.025 392.802V393.482H238.654V392.096H245.012L244.033 393.391V392.569C244.033 391.966 243.941 391.465 243.759 391.067C243.576 390.668 243.322 390.37 242.995 390.17C242.674 389.971 242.301 389.872 241.875 389.872C241.448 389.872 241.069 389.977 240.737 390.187C240.411 390.392 240.151 390.696 239.957 391.1C239.769 391.499 239.675 391.988 239.675 392.569V393.399C239.675 393.958 239.769 394.437 239.957 394.835C240.145 395.228 240.411 395.533 240.754 395.749C241.103 395.959 241.515 396.064 241.991 396.064C242.361 396.064 242.68 396.011 242.945 395.906C243.216 395.796 243.435 395.666 243.601 395.516C243.767 395.361 243.883 395.215 243.95 395.076L243.975 395.018H245.934L245.917 395.093C245.845 395.386 245.712 395.685 245.519 395.989C245.33 396.288 245.073 396.568 244.747 396.828C244.426 397.082 244.033 397.29 243.568 397.45C243.103 397.605 242.563 397.683 241.949 397.683ZM251.977 397.683C251.075 397.683 250.3 397.492 249.652 397.11C249.01 396.728 248.515 396.186 248.167 395.483C247.818 394.78 247.644 393.947 247.644 392.984V392.976C247.644 392.024 247.815 391.194 248.158 390.486C248.507 389.778 248.999 389.23 249.636 388.842C250.272 388.449 251.019 388.253 251.877 388.253C252.74 388.253 253.482 388.444 254.102 388.826C254.727 389.202 255.208 389.73 255.546 390.411C255.883 391.092 256.052 391.889 256.052 392.802V393.482H248.681V392.096H255.04L254.06 393.391V392.569C254.06 391.966 253.969 391.465 253.786 391.067C253.604 390.668 253.349 390.37 253.022 390.17C252.701 389.971 252.328 389.872 251.902 389.872C251.476 389.872 251.097 389.977 250.765 390.187C250.438 390.392 250.178 390.696 249.984 391.1C249.796 391.499 249.702 391.988 249.702 392.569V393.399C249.702 393.958 249.796 394.437 249.984 394.835C250.173 395.228 250.438 395.533 250.781 395.749C251.13 395.959 251.542 396.064 252.018 396.064C252.389 396.064 252.707 396.011 252.973 395.906C253.244 395.796 253.462 395.666 253.628 395.516C253.794 395.361 253.911 395.215 253.977 395.076L254.002 395.018H255.961L255.944 395.093C255.872 395.386 255.74 395.685 255.546 395.989C255.358 396.288 255.1 396.568 254.774 396.828C254.453 397.082 254.06 397.29 253.595 397.45C253.13 397.605 252.591 397.683 251.977 397.683Z" fill="white"/>
<rect width="306" height="36" transform="translate(42 418.5)" fill="white" fill-opacity="0.5"/>
<rect width="326" height="100" transform="translate(32 464.5)" fill="#989898"/>
<rect width="306" height="34" transform="translate(42 474.5)" fill="black" fill-opacity="0.3"/>
<path d="M144.755 497.799C143.582 497.799 142.572 497.544 141.726 497.035C140.884 496.521 140.234 495.793 139.775 494.852C139.316 493.911 139.086 492.799 139.086 491.515V491.499C139.086 490.209 139.316 489.097 139.775 488.162C140.24 487.221 140.896 486.496 141.742 485.987C142.594 485.478 143.599 485.223 144.755 485.223C145.917 485.223 146.922 485.478 147.769 485.987C148.615 486.496 149.268 487.221 149.728 488.162C150.187 489.102 150.417 490.215 150.417 491.499V491.515C150.417 492.799 150.187 493.911 149.728 494.852C149.274 495.793 148.624 496.521 147.777 497.035C146.93 497.544 145.923 497.799 144.755 497.799ZM144.755 495.948C145.469 495.948 146.086 495.765 146.606 495.4C147.127 495.035 147.528 494.52 147.81 493.856C148.098 493.192 148.242 492.412 148.242 491.515V491.499C148.242 490.597 148.098 489.816 147.81 489.158C147.528 488.494 147.127 487.982 146.606 487.622C146.086 487.257 145.469 487.074 144.755 487.074C144.047 487.074 143.43 487.257 142.904 487.622C142.384 487.982 141.98 488.494 141.692 489.158C141.41 489.816 141.269 490.597 141.269 491.499V491.515C141.269 492.412 141.407 493.192 141.684 493.856C141.966 494.52 142.368 495.035 142.888 495.4C143.413 495.765 144.036 495.948 144.755 495.948ZM147.876 498.745L144.158 493.748H146.25L149.968 498.745H147.876ZM155.663 497.683C154.987 497.683 154.42 497.553 153.961 497.292C153.502 497.027 153.156 496.642 152.923 496.139C152.691 495.63 152.575 495.015 152.575 494.296V488.427H154.642V493.823C154.642 494.526 154.78 495.054 155.057 495.408C155.333 495.762 155.784 495.939 156.41 495.939C156.742 495.939 157.035 495.89 157.29 495.79C157.55 495.685 157.765 495.535 157.937 495.342C158.109 495.148 158.239 494.916 158.327 494.645C158.416 494.368 158.46 494.058 158.46 493.715V488.427H160.527V497.5H158.46V496.122H158.319C158.181 496.443 157.987 496.722 157.738 496.96C157.489 497.193 157.19 497.373 156.841 497.5C156.493 497.622 156.1 497.683 155.663 497.683ZM166.935 497.683C166.033 497.683 165.258 497.492 164.611 497.11C163.969 496.728 163.474 496.186 163.125 495.483C162.776 494.78 162.602 493.947 162.602 492.984V492.976C162.602 492.024 162.774 491.194 163.117 490.486C163.465 489.778 163.958 489.23 164.594 488.842C165.231 488.449 165.978 488.253 166.835 488.253C167.699 488.253 168.44 488.444 169.06 488.826C169.685 489.202 170.167 489.73 170.504 490.411C170.842 491.092 171.011 491.889 171.011 492.802V493.482H163.64V492.096H169.998L169.019 493.391V492.569C169.019 491.966 168.927 491.465 168.745 491.067C168.562 490.668 168.307 490.37 167.981 490.17C167.66 489.971 167.286 489.872 166.86 489.872C166.434 489.872 166.055 489.977 165.723 490.187C165.397 490.392 165.137 490.696 164.943 491.1C164.755 491.499 164.661 491.988 164.661 492.569V493.399C164.661 493.958 164.755 494.437 164.943 494.835C165.131 495.228 165.397 495.533 165.74 495.749C166.088 495.959 166.501 496.064 166.977 496.064C167.347 496.064 167.666 496.011 167.931 495.906C168.202 495.796 168.421 495.666 168.587 495.516C168.753 495.361 168.869 495.215 168.936 495.076L168.96 495.018H170.919L170.903 495.093C170.831 495.386 170.698 495.685 170.504 495.989C170.316 496.288 170.059 496.568 169.732 496.828C169.411 497.082 169.019 497.29 168.554 497.45C168.089 497.605 167.549 497.683 166.935 497.683ZM176.506 497.683C175.737 497.683 175.073 497.575 174.514 497.359C173.96 497.138 173.523 496.833 173.202 496.446C172.881 496.053 172.69 495.599 172.629 495.084V495.068H174.68L174.688 495.084C174.799 495.4 175.006 495.657 175.311 495.856C175.615 496.056 176.024 496.155 176.539 496.155C176.882 496.155 177.184 496.108 177.444 496.014C177.704 495.915 177.909 495.779 178.058 495.607C178.208 495.436 178.282 495.237 178.282 495.01V494.993C178.282 494.728 178.174 494.506 177.958 494.329C177.743 494.146 177.386 494 176.888 493.889L175.418 493.557C174.843 493.43 174.367 493.253 173.991 493.026C173.614 492.799 173.332 492.52 173.144 492.188C172.961 491.855 172.87 491.468 172.87 491.025V491.017C172.87 490.469 173.022 489.988 173.327 489.573C173.637 489.158 174.065 488.834 174.613 488.602C175.161 488.369 175.792 488.253 176.506 488.253C177.242 488.253 177.875 488.364 178.407 488.585C178.938 488.806 179.353 489.111 179.652 489.498C179.951 489.885 180.122 490.325 180.167 490.818V490.834H178.224L178.216 490.81C178.138 490.522 177.953 490.278 177.66 490.079C177.372 489.874 176.985 489.772 176.498 489.772C176.193 489.772 175.919 489.819 175.676 489.913C175.438 490.007 175.25 490.14 175.111 490.312C174.979 490.478 174.912 490.674 174.912 490.901V490.909C174.912 491.086 174.956 491.241 175.045 491.374C175.139 491.507 175.286 491.623 175.485 491.723C175.684 491.822 175.947 491.911 176.273 491.988L177.743 492.312C178.634 492.511 179.292 492.807 179.718 493.2C180.144 493.593 180.357 494.122 180.357 494.786V494.802C180.357 495.378 180.191 495.881 179.859 496.313C179.527 496.745 179.071 497.082 178.49 497.326C177.909 497.564 177.247 497.683 176.506 497.683ZM185.96 497.542C184.92 497.542 184.17 497.351 183.711 496.969C183.252 496.587 183.022 495.962 183.022 495.093V490.029H181.611V488.427H183.022V486.203H185.122V488.427H187.031V490.029H185.122V494.603C185.122 495.051 185.216 495.381 185.404 495.591C185.598 495.796 185.908 495.898 186.334 495.898C186.483 495.898 186.605 495.895 186.699 495.89C186.799 495.879 186.91 495.868 187.031 495.856V497.45C186.887 497.478 186.721 497.5 186.533 497.517C186.351 497.533 186.16 497.542 185.96 497.542ZM189.123 497.5V488.427H191.182V497.5H189.123ZM190.161 486.908C189.823 486.908 189.533 486.789 189.289 486.551C189.046 486.313 188.924 486.028 188.924 485.696C188.924 485.353 189.046 485.065 189.289 484.833C189.533 484.595 189.823 484.476 190.161 484.476C190.498 484.476 190.786 484.595 191.024 484.833C191.267 485.065 191.389 485.353 191.389 485.696C191.389 486.028 191.267 486.313 191.024 486.551C190.786 486.789 190.498 486.908 190.161 486.908ZM197.648 497.683C196.746 497.683 195.968 497.494 195.315 497.118C194.662 496.736 194.159 496.194 193.805 495.491C193.456 494.788 193.282 493.947 193.282 492.968V492.951C193.282 491.983 193.459 491.147 193.813 490.444C194.167 489.736 194.668 489.194 195.315 488.817C195.968 488.441 196.746 488.253 197.648 488.253C198.55 488.253 199.325 488.441 199.972 488.817C200.625 489.194 201.129 489.733 201.483 490.436C201.837 491.139 202.014 491.977 202.014 492.951V492.968C202.014 493.947 201.837 494.788 201.483 495.491C201.134 496.194 200.633 496.736 199.98 497.118C199.333 497.494 198.556 497.683 197.648 497.683ZM197.648 496.006C198.124 496.006 198.528 495.887 198.86 495.649C199.197 495.405 199.455 495.06 199.632 494.611C199.809 494.158 199.897 493.612 199.897 492.976V492.959C199.897 492.318 199.809 491.772 199.632 491.324C199.455 490.87 199.197 490.525 198.86 490.287C198.528 490.043 198.124 489.921 197.648 489.921C197.172 489.921 196.765 490.043 196.428 490.287C196.09 490.525 195.833 490.87 195.656 491.324C195.479 491.772 195.39 492.318 195.39 492.959V492.976C195.39 493.612 195.479 494.158 195.656 494.611C195.833 495.065 196.087 495.411 196.419 495.649C196.757 495.887 197.167 496.006 197.648 496.006ZM204.089 497.5V488.427H206.156V489.822H206.297C206.513 489.329 206.84 488.945 207.277 488.668C207.714 488.391 208.259 488.253 208.912 488.253C209.925 488.253 210.7 488.546 211.236 489.133C211.773 489.719 212.042 490.552 212.042 491.631V497.5H209.975V492.113C209.975 491.404 209.825 490.873 209.526 490.519C209.233 490.165 208.774 489.988 208.148 489.988C207.739 489.988 207.385 490.079 207.086 490.262C206.787 490.444 206.557 490.702 206.397 491.034C206.236 491.366 206.156 491.759 206.156 492.212V497.5H204.089ZM219.678 497.5V490.029H218.192V488.427H219.678V487.531C219.678 486.922 219.781 486.418 219.985 486.02C220.196 485.622 220.519 485.326 220.957 485.132C221.394 484.933 221.947 484.833 222.617 484.833C222.838 484.833 223.043 484.841 223.231 484.858C223.419 484.869 223.593 484.888 223.754 484.916V486.36C223.676 486.349 223.577 486.341 223.455 486.335C223.333 486.324 223.201 486.319 223.057 486.319C222.57 486.319 222.224 486.432 222.019 486.659C221.814 486.881 221.712 487.21 221.712 487.647V488.427H223.679V490.029H221.745V497.5H219.678ZM229.257 497.683C228.355 497.683 227.578 497.494 226.925 497.118C226.272 496.736 225.768 496.194 225.414 495.491C225.065 494.788 224.891 493.947 224.891 492.968V492.951C224.891 491.983 225.068 491.147 225.422 490.444C225.777 489.736 226.277 489.194 226.925 488.817C227.578 488.441 228.355 488.253 229.257 488.253C230.159 488.253 230.934 488.441 231.582 488.817C232.235 489.194 232.738 489.733 233.092 490.436C233.446 491.139 233.624 491.977 233.624 492.951V492.968C233.624 493.947 233.446 494.788 233.092 495.491C232.744 496.194 232.243 496.736 231.59 497.118C230.942 497.494 230.165 497.683 229.257 497.683ZM229.257 496.006C229.733 496.006 230.137 495.887 230.469 495.649C230.807 495.405 231.064 495.06 231.241 494.611C231.418 494.158 231.507 493.612 231.507 492.976V492.959C231.507 492.318 231.418 491.772 231.241 491.324C231.064 490.87 230.807 490.525 230.469 490.287C230.137 490.043 229.733 489.921 229.257 489.921C228.781 489.921 228.375 490.043 228.037 490.287C227.7 490.525 227.442 490.87 227.265 491.324C227.088 491.772 227 492.318 227 492.959V492.976C227 493.612 227.088 494.158 227.265 494.611C227.442 495.065 227.697 495.411 228.029 495.649C228.366 495.887 228.776 496.006 229.257 496.006ZM238.704 497.683C238.028 497.683 237.461 497.553 237.002 497.292C236.543 497.027 236.197 496.642 235.964 496.139C235.732 495.63 235.616 495.015 235.616 494.296V488.427H237.683V493.823C237.683 494.526 237.821 495.054 238.098 495.408C238.374 495.762 238.825 495.939 239.451 495.939C239.783 495.939 240.076 495.89 240.331 495.79C240.591 495.685 240.806 495.535 240.978 495.342C241.15 495.148 241.28 494.916 241.368 494.645C241.457 494.368 241.501 494.058 241.501 493.715V488.427H243.568V497.5H241.501V496.122H241.36C241.222 496.443 241.028 496.722 240.779 496.96C240.53 497.193 240.231 497.373 239.882 497.5C239.534 497.622 239.141 497.683 238.704 497.683ZM246.091 497.5V488.427H248.158V489.822H248.299C248.454 489.335 248.731 488.956 249.129 488.685C249.533 488.413 250.034 488.278 250.632 488.278C250.787 488.278 250.939 488.289 251.088 488.311C251.243 488.328 251.371 488.35 251.47 488.377V490.229C251.304 490.19 251.135 490.162 250.964 490.146C250.798 490.123 250.624 490.112 250.441 490.112C249.982 490.112 249.58 490.198 249.237 490.37C248.894 490.541 248.629 490.787 248.44 491.108C248.252 491.424 248.158 491.797 248.158 492.229V497.5H246.091Z" fill="white"/>
<rect width="306" height="36" transform="translate(42 518.5)" fill="white" fill-opacity="0.5"/>
<rect width="326" height="100" transform="translate(32 564.5)" fill="#989898"/>
<rect width="306" height="34" transform="translate(42 574.5)" fill="black" fill-opacity="0.3"/>
<path d="M147.015 597.799C145.842 597.799 144.832 597.544 143.985 597.035C143.144 596.521 142.494 595.793 142.035 594.852C141.575 593.911 141.346 592.799 141.346 591.515V591.499C141.346 590.209 141.575 589.097 142.035 588.162C142.5 587.221 143.155 586.496 144.002 585.987C144.854 585.478 145.859 585.223 147.015 585.223C148.177 585.223 149.182 585.478 150.028 585.987C150.875 586.496 151.528 587.221 151.987 588.162C152.447 589.102 152.676 590.215 152.676 591.499V591.515C152.676 592.799 152.447 593.911 151.987 594.852C151.534 595.793 150.883 596.521 150.037 597.035C149.19 597.544 148.183 597.799 147.015 597.799ZM147.015 595.948C147.729 595.948 148.346 595.765 148.866 595.4C149.386 595.035 149.788 594.52 150.07 593.856C150.358 593.192 150.501 592.412 150.501 591.515V591.499C150.501 590.597 150.358 589.816 150.07 589.158C149.788 588.494 149.386 587.982 148.866 587.622C148.346 587.257 147.729 587.074 147.015 587.074C146.307 587.074 145.69 587.257 145.164 587.622C144.644 587.982 144.24 588.494 143.952 589.158C143.67 589.816 143.529 590.597 143.529 591.499V591.515C143.529 592.412 143.667 593.192 143.944 593.856C144.226 594.52 144.627 595.035 145.147 595.4C145.673 595.765 146.296 595.948 147.015 595.948ZM150.136 598.745L146.417 593.748H148.509L152.228 598.745H150.136ZM157.922 597.683C157.247 597.683 156.68 597.553 156.221 597.292C155.761 597.027 155.416 596.642 155.183 596.139C154.951 595.63 154.834 595.015 154.834 594.296V588.427H156.901V593.823C156.901 594.526 157.04 595.054 157.316 595.408C157.593 595.762 158.044 595.939 158.669 595.939C159.001 595.939 159.295 595.89 159.549 595.79C159.809 595.685 160.025 595.535 160.197 595.342C160.368 595.148 160.498 594.916 160.587 594.645C160.675 594.368 160.72 594.058 160.72 593.715V588.427H162.787V597.5H160.72V596.122H160.579C160.44 596.443 160.247 596.722 159.998 596.96C159.749 597.193 159.45 597.373 159.101 597.5C158.752 597.622 158.36 597.683 157.922 597.683ZM169.195 597.683C168.293 597.683 167.518 597.492 166.871 597.11C166.229 596.728 165.733 596.186 165.385 595.483C165.036 594.78 164.862 593.947 164.862 592.984V592.976C164.862 592.024 165.033 591.194 165.376 590.486C165.725 589.778 166.218 589.23 166.854 588.842C167.49 588.449 168.237 588.253 169.095 588.253C169.958 588.253 170.7 588.444 171.32 588.826C171.945 589.202 172.427 589.73 172.764 590.411C173.102 591.092 173.271 591.889 173.271 592.802V593.482H165.899V592.096H172.258L171.278 593.391V592.569C171.278 591.966 171.187 591.465 171.004 591.067C170.822 590.668 170.567 590.37 170.241 590.17C169.92 589.971 169.546 589.872 169.12 589.872C168.694 589.872 168.315 589.977 167.983 590.187C167.656 590.392 167.396 590.696 167.203 591.1C167.014 591.499 166.92 591.988 166.92 592.569V593.399C166.92 593.958 167.014 594.437 167.203 594.835C167.391 595.228 167.656 595.533 168 595.749C168.348 595.959 168.76 596.064 169.236 596.064C169.607 596.064 169.925 596.011 170.191 595.906C170.462 595.796 170.681 595.666 170.847 595.516C171.013 595.361 171.129 595.215 171.195 595.076L171.22 595.018H173.179L173.163 595.093C173.091 595.386 172.958 595.685 172.764 595.989C172.576 596.288 172.319 596.568 171.992 596.828C171.671 597.082 171.278 597.29 170.813 597.45C170.349 597.605 169.809 597.683 169.195 597.683ZM178.766 597.683C177.996 597.683 177.332 597.575 176.773 597.359C176.22 597.138 175.783 596.833 175.462 596.446C175.141 596.053 174.95 595.599 174.889 595.084V595.068H176.939L176.948 595.084C177.058 595.4 177.266 595.657 177.57 595.856C177.875 596.056 178.284 596.155 178.799 596.155C179.142 596.155 179.444 596.108 179.704 596.014C179.964 595.915 180.168 595.779 180.318 595.607C180.467 595.436 180.542 595.237 180.542 595.01V594.993C180.542 594.728 180.434 594.506 180.218 594.329C180.002 594.146 179.646 594 179.147 593.889L177.678 593.557C177.103 593.43 176.627 593.253 176.25 593.026C175.874 592.799 175.592 592.52 175.404 592.188C175.221 591.855 175.13 591.468 175.13 591.025V591.017C175.13 590.469 175.282 589.988 175.586 589.573C175.896 589.158 176.325 588.834 176.873 588.602C177.421 588.369 178.052 588.253 178.766 588.253C179.502 588.253 180.135 588.364 180.667 588.585C181.198 588.806 181.613 589.111 181.912 589.498C182.21 589.885 182.382 590.325 182.426 590.818V590.834H180.484L180.476 590.81C180.398 590.522 180.213 590.278 179.919 590.079C179.632 589.874 179.244 589.772 178.757 589.772C178.453 589.772 178.179 589.819 177.936 589.913C177.698 590.007 177.509 590.14 177.371 590.312C177.238 590.478 177.172 590.674 177.172 590.901V590.909C177.172 591.086 177.216 591.241 177.305 591.374C177.399 591.507 177.545 591.623 177.745 591.723C177.944 591.822 178.207 591.911 178.533 591.988L180.002 592.312C180.893 592.511 181.552 592.807 181.978 593.2C182.404 593.593 182.617 594.122 182.617 594.786V594.802C182.617 595.378 182.451 595.881 182.119 596.313C181.787 596.745 181.331 597.082 180.75 597.326C180.168 597.564 179.507 597.683 178.766 597.683ZM188.22 597.542C187.18 597.542 186.43 597.351 185.971 596.969C185.511 596.587 185.282 595.962 185.282 595.093V590.029H183.871V588.427H185.282V586.203H187.382V588.427H189.291V590.029H187.382V594.603C187.382 595.051 187.476 595.381 187.664 595.591C187.858 595.796 188.168 595.898 188.594 595.898C188.743 595.898 188.865 595.895 188.959 595.89C189.059 595.879 189.169 595.868 189.291 595.856V597.45C189.147 597.478 188.981 597.5 188.793 597.517C188.61 597.533 188.419 597.542 188.22 597.542ZM191.383 597.5V588.427H193.441V597.5H191.383ZM192.42 586.908C192.083 586.908 191.792 586.789 191.549 586.551C191.305 586.313 191.184 586.028 191.184 585.696C191.184 585.353 191.305 585.065 191.549 584.833C191.792 584.595 192.083 584.476 192.42 584.476C192.758 584.476 193.046 584.595 193.284 584.833C193.527 585.065 193.649 585.353 193.649 585.696C193.649 586.028 193.527 586.313 193.284 586.551C193.046 586.789 192.758 586.908 192.42 586.908ZM199.908 597.683C199.006 597.683 198.228 597.494 197.575 597.118C196.922 596.736 196.419 596.194 196.064 595.491C195.716 594.788 195.542 593.947 195.542 592.968V592.951C195.542 591.983 195.719 591.147 196.073 590.444C196.427 589.736 196.928 589.194 197.575 588.817C198.228 588.441 199.006 588.253 199.908 588.253C200.81 588.253 201.584 588.441 202.232 588.817C202.885 589.194 203.389 589.733 203.743 590.436C204.097 591.139 204.274 591.977 204.274 592.951V592.968C204.274 593.947 204.097 594.788 203.743 595.491C203.394 596.194 202.893 596.736 202.24 597.118C201.593 597.494 200.815 597.683 199.908 597.683ZM199.908 596.006C200.384 596.006 200.788 595.887 201.12 595.649C201.457 595.405 201.715 595.06 201.892 594.611C202.069 594.158 202.157 593.612 202.157 592.976V592.959C202.157 592.318 202.069 591.772 201.892 591.324C201.715 590.87 201.457 590.525 201.12 590.287C200.788 590.043 200.384 589.921 199.908 589.921C199.432 589.921 199.025 590.043 198.688 590.287C198.35 590.525 198.093 590.87 197.916 591.324C197.738 591.772 197.65 592.318 197.65 592.959V592.976C197.65 593.612 197.738 594.158 197.916 594.611C198.093 595.065 198.347 595.411 198.679 595.649C199.017 595.887 199.426 596.006 199.908 596.006ZM206.349 597.5V588.427H208.416V589.822H208.557C208.773 589.329 209.099 588.945 209.537 588.668C209.974 588.391 210.519 588.253 211.172 588.253C212.185 588.253 212.959 588.546 213.496 589.133C214.033 589.719 214.301 590.552 214.301 591.631V597.5H212.234V592.113C212.234 591.404 212.085 590.873 211.786 590.519C211.493 590.165 211.034 589.988 210.408 589.988C209.999 589.988 209.645 590.079 209.346 590.262C209.047 590.444 208.817 590.702 208.657 591.034C208.496 591.366 208.416 591.759 208.416 592.212V597.5H206.349ZM221.938 597.5V590.029H220.452V588.427H221.938V587.531C221.938 586.922 222.04 586.418 222.245 586.02C222.455 585.622 222.779 585.326 223.216 585.132C223.653 584.933 224.207 584.833 224.876 584.833C225.098 584.833 225.303 584.841 225.491 584.858C225.679 584.869 225.853 584.888 226.014 584.916V586.36C225.936 586.349 225.837 586.341 225.715 586.335C225.593 586.324 225.46 586.319 225.316 586.319C224.829 586.319 224.484 586.432 224.279 586.659C224.074 586.881 223.972 587.21 223.972 587.647V588.427H225.939V590.029H224.005V597.5H221.938ZM227.956 597.5V588.427H230.015V597.5H227.956ZM228.994 586.908C228.656 586.908 228.366 586.789 228.122 586.551C227.879 586.313 227.757 586.028 227.757 585.696C227.757 585.353 227.879 585.065 228.122 584.833C228.366 584.595 228.656 584.476 228.994 584.476C229.331 584.476 229.619 584.595 229.857 584.833C230.1 585.065 230.222 585.353 230.222 585.696C230.222 586.028 230.1 586.313 229.857 586.551C229.619 586.789 229.331 586.908 228.994 586.908ZM235.003 597.5L231.774 588.427H233.982L236.074 595.483H236.224L238.307 588.427H240.482L237.261 597.5H235.003ZM245.745 597.683C244.843 597.683 244.068 597.492 243.42 597.11C242.778 596.728 242.283 596.186 241.935 595.483C241.586 594.78 241.412 593.947 241.412 592.984V592.976C241.412 592.024 241.583 591.194 241.926 590.486C242.275 589.778 242.767 589.23 243.404 588.842C244.04 588.449 244.787 588.253 245.645 588.253C246.508 588.253 247.25 588.444 247.87 588.826C248.495 589.202 248.976 589.73 249.314 590.411C249.652 591.092 249.82 591.889 249.82 592.802V593.482H242.449V592.096H248.808L247.828 593.391V592.569C247.828 591.966 247.737 591.465 247.554 591.067C247.372 590.668 247.117 590.37 246.791 590.17C246.47 589.971 246.096 589.872 245.67 589.872C245.244 589.872 244.865 589.977 244.533 590.187C244.206 590.392 243.946 590.696 243.752 591.1C243.564 591.499 243.47 591.988 243.47 592.569V593.399C243.47 593.958 243.564 594.437 243.752 594.835C243.941 595.228 244.206 595.533 244.549 595.749C244.898 595.959 245.31 596.064 245.786 596.064C246.157 596.064 246.475 596.011 246.741 595.906C247.012 595.796 247.23 595.666 247.396 595.516C247.562 595.361 247.679 595.215 247.745 595.076L247.77 595.018H249.729L249.712 595.093C249.64 595.386 249.508 595.685 249.314 595.989C249.126 596.288 248.868 596.568 248.542 596.828C248.221 597.082 247.828 597.29 247.363 597.45C246.898 597.605 246.359 597.683 245.745 597.683Z" fill="white"/>
<rect width="306" height="36" transform="translate(42 618.5)" fill="white" fill-opacity="0.5"/>
<rect width="366" height="102" transform="translate(12 684.5)" fill="#D9D9D9"/>
<rect x="32" y="704.5" width="326" height="62" rx="10" fill="#6B6B6B"/>
<path d="M150.915 741.799C149.78 741.799 148.801 741.544 147.976 741.035C147.157 740.526 146.523 739.804 146.075 738.869C145.632 737.928 145.411 736.813 145.411 735.523V735.507C145.411 734.212 145.632 733.097 146.075 732.162C146.523 731.221 147.157 730.496 147.976 729.987C148.795 729.478 149.772 729.223 150.906 729.223C151.814 729.223 152.633 729.403 153.363 729.763C154.094 730.117 154.689 730.609 155.148 731.24C155.607 731.866 155.884 732.585 155.978 733.398L155.97 733.465H153.878L153.87 733.423C153.77 732.953 153.582 732.543 153.305 732.195C153.028 731.841 152.685 731.567 152.276 731.373C151.866 731.174 151.41 731.074 150.906 731.074C150.231 731.074 149.645 731.254 149.146 731.614C148.648 731.973 148.264 732.485 147.993 733.149C147.727 733.808 147.594 734.591 147.594 735.499V735.515C147.594 736.423 147.727 737.208 147.993 737.873C148.264 738.537 148.648 739.049 149.146 739.408C149.645 739.768 150.234 739.948 150.915 739.948C151.424 739.948 151.88 739.859 152.284 739.682C152.694 739.505 153.034 739.256 153.305 738.935C153.582 738.609 153.77 738.227 153.87 737.79L153.886 737.74H155.978V737.806C155.873 738.603 155.593 739.3 155.14 739.898C154.686 740.496 154.099 740.963 153.38 741.301C152.66 741.633 151.839 741.799 150.915 741.799ZM157.115 741.5L161.365 729.522H163.142V731.747H162.502L159.356 741.5H157.115ZM159.257 738.404L159.813 736.752H165.308L165.864 738.404H159.257ZM165.79 741.5L162.644 731.747V729.522H163.772L168.031 741.5H165.79ZM170.089 741.5V729.522H172.231V739.699H177.718V741.5H170.089ZM184.632 741.799C183.498 741.799 182.518 741.544 181.694 741.035C180.875 740.526 180.241 739.804 179.793 738.869C179.35 737.928 179.129 736.813 179.129 735.523V735.507C179.129 734.212 179.35 733.097 179.793 732.162C180.241 731.221 180.875 730.496 181.694 729.987C182.513 729.478 183.49 729.223 184.624 729.223C185.532 729.223 186.351 729.403 187.081 729.763C187.812 730.117 188.406 730.609 188.866 731.24C189.325 731.866 189.602 732.585 189.696 733.398L189.688 733.465H187.596L187.587 733.423C187.488 732.953 187.3 732.543 187.023 732.195C186.746 731.841 186.403 731.567 185.994 731.373C185.584 731.174 185.128 731.074 184.624 731.074C183.949 731.074 183.362 731.254 182.864 731.614C182.366 731.973 181.982 732.485 181.71 733.149C181.445 733.808 181.312 734.591 181.312 735.499V735.515C181.312 736.423 181.445 737.208 181.71 737.873C181.982 738.537 182.366 739.049 182.864 739.408C183.362 739.768 183.952 739.948 184.632 739.948C185.141 739.948 185.598 739.859 186.002 739.682C186.411 739.505 186.752 739.256 187.023 738.935C187.3 738.609 187.488 738.227 187.587 737.79L187.604 737.74H189.696V737.806C189.591 738.603 189.311 739.3 188.857 739.898C188.404 740.496 187.817 740.963 187.098 741.301C186.378 741.633 185.556 741.799 184.632 741.799ZM197 741.799C195.993 741.799 195.122 741.613 194.386 741.243C193.65 740.872 193.08 740.354 192.676 739.69C192.277 739.026 192.078 738.254 192.078 737.375V729.522H194.211V737.2C194.211 737.748 194.319 738.229 194.535 738.645C194.757 739.054 195.075 739.375 195.49 739.607C195.905 739.834 196.411 739.948 197.009 739.948C197.601 739.948 198.104 739.834 198.52 739.607C198.935 739.375 199.25 739.054 199.466 738.645C199.682 738.229 199.79 737.748 199.79 737.2V729.522H201.923V737.375C201.923 738.254 201.724 739.026 201.325 739.69C200.927 740.354 200.36 740.872 199.624 741.243C198.893 741.613 198.019 741.799 197 741.799ZM204.87 741.5V729.522H207.011V739.699H212.498V741.5H204.87ZM213.926 741.5L218.176 729.522H219.952V731.747H219.313L216.167 741.5H213.926ZM216.067 738.404L216.624 736.752H222.119L222.675 738.404H216.067ZM222.6 741.5L219.454 731.747V729.522H220.583L224.841 741.5H222.6ZM228.552 741.5V731.323H224.866V729.522H234.379V731.323H230.693V741.5H228.552ZM236.628 741.5V729.522H244.381V731.323H238.77V734.569H244.074V736.271H238.77V739.699H244.381V741.5H236.628Z" fill="white"/>
</g>
<path d="M58.2666 26.4731C58.9085 26.4731 59.5173 26.5921 60.0928 26.8301C60.6683 27.0625 61.1774 27.4277 61.6201 27.9258C62.0684 28.4183 62.4198 29.0519 62.6743 29.8267C62.9289 30.5959 63.0562 31.5228 63.0562 32.6074V32.624C63.0562 33.9688 62.8625 35.1198 62.4751 36.0771C62.0877 37.0345 61.5316 37.7705 60.8066 38.2852C60.0872 38.7943 59.2267 39.0488 58.2251 39.0488C57.4891 39.0488 56.825 38.916 56.2329 38.6504C55.6463 38.3792 55.1593 38.0085 54.772 37.5381C54.3901 37.0622 54.1328 36.5199 54 35.9111L53.9834 35.8198H56.0835L56.1167 35.9028C56.2218 36.1795 56.3713 36.423 56.5649 36.6333C56.7642 36.8436 57.0021 37.0068 57.2788 37.123C57.561 37.2337 57.8765 37.2891 58.2251 37.2891C58.856 37.2891 59.3706 37.1037 59.769 36.7329C60.173 36.3566 60.4746 35.8558 60.6738 35.2305C60.8786 34.5996 60.9948 33.9023 61.0225 33.1387C61.028 33.0557 61.0308 32.9754 61.0308 32.8979C61.0308 32.8149 61.0308 32.7347 61.0308 32.6572L60.6572 30.6567C60.6572 30.203 60.5521 29.7907 60.3418 29.4199C60.1315 29.0492 59.8465 28.7559 59.4868 28.54C59.1326 28.3242 58.7314 28.2163 58.2832 28.2163C57.8516 28.2163 57.4559 28.3215 57.0962 28.5317C56.7365 28.742 56.4487 29.0298 56.2329 29.395C56.0171 29.7547 55.9092 30.1587 55.9092 30.6069V30.6235C55.9092 31.0884 56.0116 31.5007 56.2163 31.8604C56.4211 32.2145 56.7005 32.494 57.0547 32.6987C57.4089 32.9035 57.8128 33.0059 58.2666 33.0059C58.7204 33.0059 59.1271 32.9062 59.4868 32.707C59.8465 32.5078 60.1315 32.2311 60.3418 31.877C60.5521 31.5228 60.6572 31.1216 60.6572 30.6733V30.6567H61.1553V32.8647H60.8647C60.7209 33.1802 60.5078 33.4735 60.2256 33.7446C59.9434 34.0158 59.5947 34.2344 59.1797 34.4004C58.7702 34.5664 58.2887 34.6494 57.7354 34.6494C56.9717 34.6494 56.2965 34.4779 55.71 34.1348C55.1234 33.7917 54.6613 33.3213 54.3237 32.7236C53.9917 32.126 53.8257 31.4508 53.8257 30.6982V30.6816C53.8257 29.8682 54.0138 29.146 54.3901 28.5151C54.772 27.8787 55.2977 27.3807 55.9673 27.021C56.6424 26.6558 57.4089 26.4731 58.2666 26.4731ZM66.8247 37.1396C66.4484 37.1396 66.133 37.0151 65.8784 36.7661C65.6294 36.5116 65.5049 36.2017 65.5049 35.8364C65.5049 35.4657 65.6294 35.1558 65.8784 34.9067C66.133 34.6522 66.4484 34.5249 66.8247 34.5249C67.2065 34.5249 67.522 34.6522 67.771 34.9067C68.02 35.1558 68.1445 35.4657 68.1445 35.8364C68.1445 36.2017 68.02 36.5116 67.771 36.7661C67.522 37.0151 67.2065 37.1396 66.8247 37.1396ZM66.8247 30.9805C66.4484 30.9805 66.133 30.856 65.8784 30.6069C65.6294 30.3524 65.5049 30.0425 65.5049 29.6772C65.5049 29.3065 65.6294 28.9966 65.8784 28.7476C66.133 28.493 66.4484 28.3657 66.8247 28.3657C67.2065 28.3657 67.522 28.493 67.771 28.7476C68.02 28.9966 68.1445 29.3065 68.1445 29.6772C68.1445 30.0425 68.02 30.3524 67.771 30.6069C67.522 30.856 67.2065 30.9805 66.8247 30.9805ZM76.4038 38.75V36.4507H70.5435V34.6992C70.8589 34.1624 71.1743 33.6229 71.4897 33.0806C71.8107 32.5382 72.1344 31.9987 72.4609 31.4619C72.793 30.9196 73.1222 30.3856 73.4487 29.8599C73.7808 29.3286 74.11 28.8057 74.4365 28.291C74.7686 27.7708 75.1006 27.2645 75.4326 26.772H78.4458V34.6826H80.0645V36.4507H78.4458V38.75H76.4038ZM72.5356 34.7324H76.437V28.4819H76.3125C76.069 28.8582 75.8172 29.2456 75.5571 29.644C75.3026 30.0425 75.0452 30.4492 74.7852 30.8643C74.5251 31.2793 74.2677 31.6971 74.0132 32.1177C73.7586 32.5327 73.5068 32.9505 73.2578 33.3711C73.0088 33.7861 72.7681 34.1984 72.5356 34.6079V34.7324ZM85.02 38.75V28.8804H84.8706L81.8906 30.9805V28.9717L85.02 26.772H87.1533V38.75H85.02Z" fill="black"/>
<path fill-rule="evenodd" clip-rule="evenodd" d="M298.865 27.533C298.865 26.9 298.388 26.3868 297.798 26.3868H296.732C296.143 26.3868 295.665 26.9 295.665 27.533V37.467C295.665 38.1 296.143 38.6132 296.732 38.6132H297.798C298.388 38.6132 298.865 38.1 298.865 37.467V27.533ZM291.431 28.8321H292.498C293.087 28.8321 293.564 29.3576 293.564 30.0058V37.4395C293.564 38.0877 293.087 38.6132 292.498 38.6132H291.431C290.842 38.6132 290.364 38.0877 290.364 37.4395V30.0058C290.364 29.3576 290.842 28.8321 291.431 28.8321ZM287.099 31.4811H286.033C285.444 31.4811 284.966 32.0133 284.966 32.6698V37.4245C284.966 38.081 285.444 38.6132 286.033 38.6132H287.099C287.688 38.6132 288.166 38.081 288.166 37.4245V32.6698C288.166 32.0133 287.688 31.4811 287.099 31.4811ZM281.798 33.9264H280.732C280.143 33.9264 279.665 34.451 279.665 35.0981V37.4415C279.665 38.0886 280.143 38.6132 280.732 38.6132H281.798C282.388 38.6132 282.865 38.0886 282.865 37.4415V35.0981C282.865 34.451 282.388 33.9264 281.798 33.9264Z" fill="black"/>
<path fill-rule="evenodd" clip-rule="evenodd" d="M314.436 28.8021C316.924 28.8022 319.316 29.7243 321.118 31.3778C321.254 31.5055 321.471 31.5038 321.604 31.3742L322.902 30.1107C322.97 30.045 323.007 29.9559 323.007 29.8632C323.006 29.7705 322.967 29.6819 322.899 29.6169C318.168 25.2422 310.704 25.2422 305.973 29.6169C305.905 29.6818 305.866 29.7704 305.865 29.8631C305.865 29.9558 305.902 30.0449 305.97 30.1107L307.268 31.3742C307.401 31.504 307.618 31.5056 307.754 31.3778C309.557 29.7242 311.949 28.8021 314.436 28.8021ZM314.433 33.0224C315.79 33.0223 317.099 33.5341 318.105 34.4582C318.241 34.5893 318.456 34.5865 318.589 34.4518L319.876 33.1325C319.944 33.0633 319.981 32.9694 319.98 32.8718C319.979 32.7743 319.94 32.6812 319.871 32.6134C316.807 29.7226 312.062 29.7226 308.998 32.6134C308.929 32.6812 308.889 32.7743 308.889 32.8719C308.888 32.9695 308.925 33.0634 308.993 33.1325L310.28 34.4518C310.413 34.5865 310.627 34.5893 310.763 34.4582C311.769 33.5347 313.077 33.023 314.433 33.0224ZM316.958 35.816C316.959 35.9213 316.922 36.0229 316.855 36.0967L314.678 38.5514C314.615 38.6236 314.528 38.6642 314.437 38.6642C314.346 38.6642 314.259 38.6236 314.195 38.5514L312.018 36.0967C311.951 36.0228 311.914 35.9212 311.916 35.8159C311.918 35.7105 311.959 35.6108 312.029 35.5401C313.419 34.2262 315.455 34.2262 316.845 35.5401C316.915 35.6108 316.956 35.7106 316.958 35.816Z" fill="black"/>
<rect opacity="0.35" x="330.507" y="26.5" width="24" height="12" rx="3.8" stroke="black"/>
<path opacity="0.4" d="M356.007 30.5V34.5755C356.812 34.2303 357.335 33.4273 357.335 32.5377C357.335 31.6481 356.812 30.8452 356.007 30.5Z" fill="black"/>
<rect x="332.007" y="28" width="21" height="9" rx="2.5" fill="black"/>
<path d="M115 0H265V20C265 31.0457 256.046 40 245 40H135C123.954 40 115 31.0457 115 20V0Z" fill="black"/>
<defs>
<clipPath id="clip0_2004_242">
<rect width="366" height="642" fill="white" transform="translate(12 144.5)"/>
</clipPath>
</defs>
</svg>
