<svg width="261" height="257" viewBox="0 0 261 257" fill="none" xmlns="http://www.w3.org/2000/svg">
<ellipse cx="53.5" cy="54" rx="8.5" ry="22" fill="#46BEFF"/>
<ellipse cx="208.5" cy="54" rx="8.5" ry="22" fill="#46BEFF"/>
<ellipse cx="54.5" cy="56" rx="7.5" ry="17" fill="#528BCC"/>
<ellipse cx="207.5" cy="56" rx="7.5" ry="17" fill="#528BCC"/>
<rect x="43" y="15" width="176" height="234" rx="88" fill="#46BEFF"/>
<circle cx="101" cy="99" r="25" fill="white"/>
<circle cx="159" cy="99" r="25" fill="white"/>
<circle cx="101.5" cy="101.5" r="12.5" fill="#3D6899"/>
<circle cx="159.5" cy="101.5" r="12.5" fill="#3D6899"/>
<circle cx="96" cy="94" r="5" fill="white"/>
<circle cx="154" cy="94" r="5" fill="white"/>
<ellipse cx="130.5" cy="123.5" rx="18.5" ry="10.5" fill="#FFB15D"/>
<rect x="93" y="150" width="75" height="75" rx="37.5" fill="#F7F7F7"/>
<rect x="93" y="150" width="75" height="75" rx="37.5" stroke="#528BCC" stroke-width="20"/>
<rect x="88" y="145" width="85" height="85" rx="42.5" fill="#F7F7F7"/>
<circle cx="131" cy="188" r="40" fill="#F7F7F7"/>
<circle cx="131" cy="188" r="5" fill="#FFB15D"/>
<line x1="130.5" y1="148" x2="130.5" y2="158" stroke="#528BCC"/>
<line x1="130.5" y1="218" x2="130.5" y2="228" stroke="#528BCC"/>
<line x1="91" y1="187.5" x2="101" y2="187.5" stroke="#528BCC"/>
<line x1="109.718" y1="167.425" x2="102.646" y2="160.354" stroke="#528BCC"/>
<line x1="150.646" y1="166.718" x2="157.718" y2="159.646" stroke="#528BCC"/>
<line x1="103.646" y1="215.718" x2="110.718" y2="208.646" stroke="#528BCC"/>
<line x1="157.718" y1="215.425" x2="150.646" y2="208.354" stroke="#528BCC"/>
<line x1="161" y1="187.5" x2="171" y2="187.5" stroke="#528BCC"/>
<line x1="131.297" y1="187.54" x2="136.153" y2="170.044" stroke="#528BCC" stroke-width="3" stroke-linecap="round"/>
<line x1="131.008" y1="187.947" x2="162.018" y2="199.234" stroke="#528BCC" stroke-width="3" stroke-linecap="round"/>
<path d="M79 75.6422C82.2054 70.2465 91.5805 60.9596 103.437 66.9777" stroke="#528BCC" stroke-width="3" stroke-linecap="round"/>
<path d="M181.487 75.6423C178.282 70.2465 168.907 60.9596 157.05 66.9777" stroke="#528BCC" stroke-width="3" stroke-linecap="round"/>
<path d="M122.842 128.199C123.797 128.685 125.666 129.354 127.111 129.701C129.368 130.243 132.173 129.946 133.062 129.661C134.749 129.122 135.381 128.805 136.178 128.327C136.903 127.893 137.447 127.143 137.807 126.85C137.974 126.714 138.084 126.573 137.537 126.655C134.308 127.134 132.129 127.844 130.251 128.023C128.906 128.151 127.502 128.282 123.704 128.317C122.741 128.326 122.341 128.033 121.972 127.798C121.798 127.687 121.67 127.564 121.834 127.462C123.205 126.615 126.033 127.542 127.757 127.754C128.582 127.913 129.436 128.098 130.789 128.174C131.693 128.199 133.04 128.199 134.427 128.199" stroke="#B57735" stroke-width="2" stroke-linecap="round"/>
<path d="M131.479 129.869C132.219 129.869 133.881 129.798 134.322 129.613C134.829 129.401 135.376 129.347 135.813 129.231C136.247 129.115 136.573 128.816 137.163 128.52C137.628 128.286 137.979 127.962 138.262 127.691C138.467 127.496 138.682 127.331 138.79 127.12C138.851 127 138.826 126.811 138.8 126.688C138.773 126.565 138.719 126.503 138.647 126.462C138.498 126.377 138.305 126.385 138.348 126.385C138.837 126.385 139.267 126.456 139.348 126.609C139.387 126.682 139.34 126.779 139.282 126.847C139.037 127.134 138.309 127.283 137.599 127.563C137.472 127.614 137.378 127.6 137.413 127.614C138.059 127.865 138.897 127.619 139.019 127.564C139.443 127.376 138.145 128.103 137.506 128.23C136.555 128.419 135.912 128.654 135.21 128.699C134.897 128.708 134.397 128.708 134.087 128.721C133.776 128.734 133.669 128.761 133.559 128.789" stroke="#B57735" stroke-width="2" stroke-linecap="round"/>
<path d="M136.692 128.735C136.996 128.663 137.681 128.43 138.763 128.339C139.743 128.257 140.185 127.728 140.531 127.363C140.687 127.199 140.771 126.998 140.838 126.818C140.902 126.65 140.736 126.466 140.61 126.314C140.316 125.957 139.566 126.123 139.17 126.271C138.689 126.452 138.216 126.636 137.56 127.161C136.973 127.63 136.756 128.166 136.795 128.391C136.849 128.695 137.205 128.789 137.429 128.825C137.778 128.825 138.256 128.691 138.737 128.457C138.951 128.348 139.102 128.259 139.259 128.167" stroke="#B57735" stroke-width="2" stroke-linecap="round"/>
<path d="M139.259 128.167C138.865 128.337 138.072 128.627 137.079 128.864C136.52 128.998 136.171 129.212 135.853 129.283C135.357 129.395 134.251 129.527 132.826 129.509C131.851 129.497 131.301 129.303 130.919 129.208C130.5 129.105 129.381 129.077 127.932 129.005C127.141 128.966 126.388 128.763 125.319 128.511C123.596 128.106 123.188 128.113 122.473 127.943C121.732 127.767 121.046 127.494 120.737 127.219C120.686 127.173 120.781 127.079 120.884 127.02C121.367 126.744 121.905 126.835 122.45 126.808C123.094 126.776 125.08 127.093 126.446 127.276C127.199 127.377 128.49 127.554 129.8 127.77C130.685 127.861 131.313 127.915 132.185 127.969C132.668 127.978 133.532 127.978 134.423 127.978" stroke="#B57735" stroke-width="2" stroke-linecap="round"/>
<ellipse cx="43.2595" cy="167.473" rx="20" ry="50" transform="rotate(15 43.2595 167.473)" fill="#3D6899"/>
<ellipse cx="219.259" cy="167.473" rx="20" ry="50" transform="rotate(-15 219.259 167.473)" fill="#3D6899"/>
<ellipse cx="78.5" cy="237.5" rx="5.5" ry="11.5" fill="#528BCC"/>
<ellipse cx="85.5" cy="237.5" rx="5.5" ry="11.5" fill="#528BCC"/>
<ellipse cx="93.5" cy="237.5" rx="5.5" ry="11.5" fill="#528BCC"/>
<ellipse cx="168.5" cy="237.5" rx="5.5" ry="11.5" fill="#528BCC"/>
<ellipse cx="176.5" cy="237.5" rx="5.5" ry="11.5" fill="#528BCC"/>
<ellipse cx="183.5" cy="237.5" rx="5.5" ry="11.5" fill="#528BCC"/>
</svg>
