<?xml version="1.0" encoding="UTF-8"?>
<svg xmlns="http://www.w3.org/2000/svg" viewBox="0 0 256 256">

<!--Background circles for the clock face-->
  <circle cx="128" cy="128" r="92" fill="#3e78ff"/>
  <circle cx="128" cy="128" r="84" fill="#d0fff8"/>
  <circle cx="128" cy="128" r="76" fill="#ffffff"/>

<!--Clock tick marks-->
  <g stroke="#1f2a44" stroke-linecap="round" opacity="0.85">
    <g id="tick">
      <line x1="128" y1="58" x2="128" y2="72" stroke-width="6"/>
    </g>
    <use href="#tick" transform="rotate(30 128 128)"/>
    <use href="#tick" transform="rotate(60 128 128)"/>
    <use href="#tick" transform="rotate(90 128 128)"/>
    <use href="#tick" transform="rotate(120 128 128)"/>
    <use href="#tick" transform="rotate(150 128 128)"/>
    <use href="#tick" transform="rotate(180 128 128)"/>
    <use href="#tick" transform="rotate(210 128 128)"/>
    <use href="#tick" transform="rotate(240 128 128)"/>
    <use href="#tick" transform="rotate(270 128 128)"/>
    <use href="#tick" transform="rotate(300 128 128)"/>
    <use href="#tick" transform="rotate(330 128 128)"/>
  </g>

<!--Clock circles for the eyes-->
  <circle cx="104" cy="122" r="11" fill="#1f2a44"/>
  <circle cx="152" cy="122" r="11" fill="#1f2a44"/>

<!--White circles for the pupils-->
  <circle cx="100" cy="118" r="3.5" fill="#ffffff"/>
  <circle cx="148" cy="118" r="3.5" fill="#ffffff"/>

<!--Pink circles for the cheeks-->
  <circle cx="95" cy="145" r="7" fill="#ff6b9a" opacity="0.25"/>
  <circle cx="161" cy="145" r="7" fill="#ff6b9a" opacity="0.25"/>

  <path d="M112 158 Q128 172 144 158"
        fill="none"
        stroke="#1f2a44"
        stroke-width="6"
        stroke-linecap="round"/>

<!--Clock nose lines-->
  <g stroke="#1f2a44" stroke-linecap="round">
    <line x1="128" y1="130" x2="128" y2="97" stroke-width="6"/>
    <line x1="128" y1="130" x2="144" y2="143" stroke-width="6"/>
  </g>

<!--Circle in the middle of the clock-->
  <circle cx="128" cy="130" r="5" fill="#1f2a44"/>

</svg>